{"title":"Pride.And.Prejudice.2005.720p.BRRip.XviD.AC3 - CODY","uid":6281560,"size":2270705728,"categoryP":"video","categoryS":"hd___movies","magnet":"?xt=urn:btih:9dc7345a0e6e282707a8a6114b0870661cb85792&amp;dn=Pride.And.Prejudice.2005.720p.BRRip.XviD.AC3+-+CODY&amp;tr=udp%3A%2F%2Ftracker.openbittorrent.com%3A80&amp;tr=udp%3A%2F%2Fopen.demonii.com%3A1337&amp;tr=udp%3A%2F%2Ftracker.coppersurfer.tk%3A6969&amp;tr=udp%3A%2F%2Fexodus.desync.com%3A6969","seeders":1,"leechers":1,"uploader":"CODYBOSS1969","files":6,"time":1301453380,"description":"General\nComplete name                    : Pride.And.Prejudice.2005.720p.BRRip.XviD.AC3 - CODY.avi\nFormat                           : AVI\nFormat/Info                      : Audio Video Interleave\nFormat profile                   : OpenDML\nFile size                        : 2.11 GiB\nDuration                         : 2h 8mn\nOverall bit rate                 : 2 359 Kbps\nWriting application              : VirtualDubMod 1.5.10.2 (build 2540/release)\nWriting library                  : VirtualDubMod build 2540/release\n\nVideo\nID                               : 0\nFormat                           : MPEG-4 Visual\nFormat profile                   : Advanced Simple@L5\nFormat settings, BVOP            : Yes\nFormat settings, QPel            : No\nFormat settings, GMC             : No warppoints\nFormat settings, Matrix          : Default (H.263)\nCodec ID                         : XVID\nCodec ID/Hint                    : XviD\nDuration                         : 2h 8mn\nBit rate                         : 1 899 Kbps\nWidth                            : 1 280 pixels\nHeight                           : 544 pixels\nDisplay aspect ratio             : 2.35:1\nFrame rate                       : 23.976 fps\nColor space                      : YUV\nChroma subsampling               : 4:2:0\nBit depth                        : 8 bits\nScan type                        : Progressive\nCompression mode                 : Lossy\nBits/(Pixel*Frame)               : 0.114\nStream size                      : 1.70 GiB (81%)\nWriting library                  : XviD 1.2.0.dev47 (UTC 2006-11-01)\n\nAudio\nID                               : 1\nFormat                           : AC-3\nFormat/Info                      : Audio Coding 3\nMode extension                   : CM (complete main)\nCodec ID                         : 2000\nDuration                         : 2h 8mn\nBit rate mode                    : Constant\nBit rate                         : 448 Kbps\nChannel(s)                       : 6 channels\nChannel positions                : Front: L C R, Side: L R, LFE\nSampling rate                    : 48.0 KHz\nBit depth                        : 16 bits\nCompression mode                 : Lossy\nStream size                      : 411 MiB (19%)\nAlignment                        : Split accross interleaves\nInterleave, duration             : 42 ms (1.00 video frame)\nInterleave, preload duration     : 500 ms\n\n\n\nIMDB link :                         &lt;a href=&quot; http://www.imdb.com/title/tt0414387&quot; rel=&quot;nofollow&quot; target=&quot;_NEW&quot;&gt; http://www.imdb.com/title/tt0414387&lt;/a&gt;\n\n\n\nSubitles included                 : Romanian,English\n\n\n\n\nPlease seed at least 1,5:1. This way this torrent has a chance to survive !\n\n\nThanks. ENJOY !!!","torrent":{"xt":"urn:btih:9dc7345a0e6e282707a8a6114b0870661cb85792","amp;dn":"Pride.And.Prejudice.2005.720p.BRRip.XviD.AC3+-+CODY","amp;tr":["udp%3A%2F%2Ftracker.openbittorrent.com%3A80","udp%3A%2F%2Fopen.demonii.com%3A1337","udp%3A%2F%2Ftracker.coppersurfer.tk%3A6969","udp%3A%2F%2Fexodus.desync.com%3A6969"],"infoHash":"9dc7345a0e6e282707a8a6114b0870661cb85792","infoHashBuffer":{"type":"Buffer","data":[157,199,52,90,14,110,40,39,7,168,166,17,75,8,112,102,28,184,87,146]},"announce":[],"urlList":[]}}